<?xml version="1.0" encoding="utf-8" standalone="yes"?>
<!DOCTYPE svg PUBLIC "-//W3C//DTD SVG 1.1//EN" "http://www.w3.org/Graphics/SVG/1.1/DTD/svg11.dtd">
<svg width="603" height="570" viewBox="0 0 603 570" style="fill:none;stroke:none;fill-rule:evenodd;clip-rule:evenodd;stroke-linecap:round;stroke-linejoin:round;stroke-miterlimit:1.5;" version="1.1" xmlns="http://www.w3.org/2000/svg" xmlns:xlink="http://www.w3.org/1999/xlink"><style id="fontImports">@import url("https://fonts.googleapis.com/css2?family=Roboto:wght@400;700&amp;display=block");
@import url("https://fonts.googleapis.com/css2?family=Shantell+Sans:wght@300..800&amp;display=block");</style><g id="items" style="isolation: isolate"><g id="blend" style="mix-blend-mode: normal"><g id="g-root-7.cu_sy_hznq3w1t8tzpk-fill" data-item-order="999944248" transform="translate(15.52862548828125, 447.8193359375)"><g id="7.cu_sy_hznq3w1t8tzpk-fill" stroke="none" fill="#f5f5f5"><g><path d="M 127.336977 20.2322C 126.543977 29.7108 98.397177 34.4164 69.909777 39.6509C 48.711877 43.546 29.357977 45.288 21.745577 47.0136C 15.502477 48.4288 9.471377 52.8286 10.036877 61.629C 10.381077 66.9868 13.703477 71.4046 21.745577 72.035C 31.437377 72.7948 48.104077 69.9303 75.229277 65.242C 123.998977 56.8124 140.902977 48.3751 140.902977 31.5084C 140.902977 20.2322 125.553977 12.281 118.676977 10C 122.844977 11.6633 127.810977 14.562 127.336977 20.2322Z"></path></g></g></g><g id="g-root-7.cu_1_sy_hznq3w1t8tzpl-fill" data-item-order="999944250" transform="translate(18.224365234375, 441.54638671875)"><g id="7.cu_1_sy_hznq3w1t8tzpl-fill" stroke="none" fill="#f5f5f5"><g><path d="M 38.0076 27.1771C 16.9757 24.0392 10.9029 18.5537 10 17.5313C 11.8743 19.5171 14.7922 20.8771 19.0033 21.2053C 28.7014 21.9611 45.379 19.1113 72.522 14.4469C 81.0593 12.9798 88.6207 11.5124 95.2864 10C 102.5445 12.184 110.341 13.5695 117.352 16.811C 120.339 18.2371 124.813 20.893 124.686 26.0148C 124.538 31.9893 114.66 35.7537 102.0009 38.9452C 101.6757 38.8312 100.3044 38.2844 99.9973 38.1713C 92.3051 35.2781 65.1564 31.2276 38.0076 27.1771Z"></path></g></g></g><g id="g-root-6.cu_sy_dju7zg1t8u0hu-fill" data-item-order="999944254" transform="translate(15.52862548828125, 390.79443359375)"><g id="6.cu_sy_dju7zg1t8u0hu-fill" stroke="none" fill="#faf0ff"><g><path d="M 127.336977 20.2322C 126.543977 29.7108 98.397177 34.4164 69.909777 39.6509C 48.711877 43.546 29.357977 45.288 21.745577 47.0136C 15.502477 48.4288 9.471377 52.8286 10.036877 61.629C 10.381077 66.9868 13.703477 71.4046 21.745577 72.035C 31.437377 72.7948 48.104077 69.9303 75.229277 65.242C 123.998977 56.8124 140.902977 48.3751 140.902977 31.5084C 140.902977 20.2322 125.553977 12.281 118.676977 10C 122.844977 11.6633 127.810977 14.562 127.336977 20.2322Z"></path></g></g></g><g id="g-root-6.cu_1_sy_4o77qk1t8u1aj-fill" data-item-order="999944256" transform="translate(18.224365234375, 384.52197265625)"><g id="6.cu_1_sy_4o77qk1t8u1aj-fill" stroke="none" fill="#faf0ff"><g><path d="M 38.0076 27.1771C 16.9757 24.0392 10.9029 18.5537 10 17.5313C 11.8743 19.5171 14.7922 20.8771 19.0033 21.2053C 28.7014 21.9611 45.379 19.1113 72.522 14.4469C 81.0593 12.9798 88.6207 11.5124 95.2864 10C 102.5445 12.184 110.341 13.5695 117.352 16.811C 120.339 18.2371 124.813 20.893 124.686 26.0148C 124.538 31.9893 114.66 35.7537 102.0009 38.9452C 101.6757 38.8312 100.3044 38.2844 99.9973 38.1713C 92.3051 35.2781 65.1564 31.2276 38.0076 27.1771Z"></path></g></g></g><g id="g-root-5.cu_sy_4o77qk1t8u1ak-fill" data-item-order="999944260" transform="translate(15.52862548828125, 333.77001953125)"><g id="5.cu_sy_4o77qk1t8u1ak-fill" stroke="none" fill="#ffeceb"><g><path d="M 127.336977 20.2322C 126.543977 29.7108 98.397177 34.4164 69.909777 39.6509C 48.711877 43.546 29.357977 45.288 21.745577 47.0136C 15.502477 48.4288 9.471377 52.8286 10.036877 61.629C 10.381077 66.9868 13.703477 71.4046 21.745577 72.035C 31.437377 72.7948 48.104077 69.9303 75.229277 65.242C 123.998977 56.8124 140.902977 48.3751 140.902977 31.5084C 140.902977 20.2322 125.553977 12.281 118.676977 10C 122.844977 11.6633 127.810977 14.562 127.336977 20.2322Z"></path></g></g></g><g id="g-root-5.cu_1_sy_906p81t8tyx1-fill" data-item-order="999944262" transform="translate(18.224365234375, 327.4970703125)"><g id="5.cu_1_sy_906p81t8tyx1-fill" stroke="none" fill="#ffeceb"><g><path d="M 38.0076 27.1771C 16.9757 24.0392 10.9029 18.5537 10 17.5313C 11.8743 19.5171 14.7922 20.8771 19.0033 21.2053C 28.7014 21.9611 45.379 19.1113 72.522 14.4469C 81.0593 12.9798 88.6207 11.5124 95.2864 10C 102.5445 12.184 110.341 13.5695 117.352 16.811C 120.339 18.2371 124.813 20.893 124.686 26.0148C 124.538 31.9893 114.66 35.7537 102.0009 38.9452C 101.6757 38.8312 100.3044 38.2844 99.9973 38.1713C 92.3051 35.2781 65.1564 31.2276 38.0076 27.1771Z"></path></g></g></g><g id="g-root-4.cu_sy_906p81t8tyx2-fill" data-item-order="999944266" transform="translate(15.52862548828125, 276.74609375)"><g id="4.cu_sy_906p81t8tyx2-fill" stroke="none" fill="#fff2e5"><g><path d="M 127.336977 20.2322C 126.543977 29.7108 98.397177 34.4164 69.909777 39.6509C 48.711877 43.546 29.357977 45.288 21.745577 47.0136C 15.502477 48.4288 9.471377 52.8286 10.036877 61.629C 10.381077 66.9868 13.703477 71.4046 21.745577 72.035C 31.437377 72.7948 48.104077 69.9303 75.229277 65.242C 123.998977 56.8124 140.902977 48.3751 140.902977 31.5084C 140.902977 20.2322 125.553977 12.281 118.676977 10C 122.844977 11.6633 127.810977 14.562 127.336977 20.2322Z"></path></g></g></g><g id="g-root-4.cu_1_sy_1qeh8fg1t8tzin-fill" data-item-order="999944268" transform="translate(18.224365234375, 270.4736328125)"><g id="4.cu_1_sy_1qeh8fg1t8tzin-fill" stroke="none" fill="#fff2e5"><g><path d="M 38.0076 27.1771C 16.9757 24.0392 10.9029 18.5537 10 17.5313C 11.8743 19.5171 14.7922 20.8771 19.0033 21.2053C 28.7014 21.9611 45.379 19.1113 72.522 14.4469C 81.0593 12.9798 88.6207 11.5124 95.2864 10C 102.5445 12.184 110.341 13.5695 117.352 16.811C 120.339 18.2371 124.813 20.893 124.686 26.0148C 124.538 31.9893 114.66 35.7537 102.0009 38.9452C 101.6757 38.8312 100.3044 38.2844 99.9973 38.1713C 92.3051 35.2781 65.1564 31.2276 38.0076 27.1771Z"></path></g></g></g><g id="g-root-3.cu_sy_1uuaqjw1t8tzi8-fill" data-item-order="999944272" transform="translate(15.52862548828125, 219.720703125)"><g id="3.cu_sy_1uuaqjw1t8tzi8-fill" stroke="none" fill="#fffbda"><g><path d="M 127.336977 20.2322C 126.543977 29.7108 98.397177 34.4164 69.909777 39.6509C 48.711877 43.546 29.357977 45.288 21.745577 47.0136C 15.502477 48.4288 9.471377 52.8286 10.036877 61.629C 10.381077 66.9868 13.703477 71.4046 21.745577 72.035C 31.437377 72.7948 48.104077 69.9303 75.229277 65.242C 123.998977 56.8124 140.902977 48.3751 140.902977 31.5084C 140.902977 20.2322 125.553977 12.281 118.676977 10C 122.844977 11.6633 127.810977 14.562 127.336977 20.2322Z"></path></g></g></g><g id="g-root-3.cu_1_sy_1lynqb01t8u0ax-fill" data-item-order="999944274" transform="translate(18.224365234375, 213.4482421875)"><g id="3.cu_1_sy_1lynqb01t8u0ax-fill" stroke="none" fill="#fffbda"><g><path d="M 38.0076 27.1771C 16.9757 24.0392 10.9029 18.5537 10 17.5313C 11.8743 19.5171 14.7922 20.8771 19.0033 21.2053C 28.7014 21.9611 45.379 19.1113 72.522 14.4469C 81.0593 12.9798 88.6207 11.5124 95.2864 10C 102.5445 12.184 110.341 13.5695 117.352 16.811C 120.339 18.2371 124.813 20.893 124.686 26.0148C 124.538 31.9893 114.66 35.7537 102.0009 38.9452C 101.6757 38.8312 100.3044 38.2844 99.9973 38.1713C 92.3051 35.2781 65.1564 31.2276 38.0076 27.1771Z"></path></g></g></g><g id="g-root-2.cu_sy_1lynqb01t8u0ay-fill" data-item-order="999944278" transform="translate(15.52862548828125, 162.6962890625)"><g id="2.cu_sy_1lynqb01t8u0ay-fill" stroke="none" fill="#e3fff2"><g><path d="M 127.336977 20.2322C 126.543977 29.7108 98.397177 34.4164 69.909777 39.6509C 48.711877 43.546 29.357977 45.288 21.745577 47.0136C 15.502477 48.4288 9.471377 52.8286 10.036877 61.629C 10.381077 66.9868 13.703477 71.4046 21.745577 72.035C 31.437377 72.7948 48.104077 69.9303 75.229277 65.242C 123.998977 56.8124 140.902977 48.3751 140.902977 31.5084C 140.902977 20.2322 125.553977 12.281 118.676977 10C 122.844977 11.6633 127.810977 14.562 127.336977 20.2322Z"></path></g></g></g><g id="g-root-2.cu_1_sy_1lynqb01t8u0az-fill" data-item-order="999944280" transform="translate(18.224365234375, 156.4228515625)"><g id="2.cu_1_sy_1lynqb01t8u0az-fill" stroke="none" fill="#e3fff2"><g><path d="M 38.0076 27.1771C 16.9757 24.0392 10.9029 18.5537 10 17.5313C 11.8743 19.5171 14.7922 20.8771 19.0033 21.2053C 28.7014 21.9611 45.379 19.1113 72.522 14.4469C 81.0593 12.9798 88.6207 11.5124 95.2864 10C 102.5445 12.184 110.341 13.5695 117.352 16.811C 120.339 18.2371 124.813 20.893 124.686 26.0148C 124.538 31.9893 114.66 35.7537 102.0009 38.9452C 101.6757 38.8312 100.3044 38.2844 99.9973 38.1713C 92.3051 35.2781 65.1564 31.2276 38.0076 27.1771Z"></path></g></g></g><g id="g-root-1.cu_sy_1hiu86k1t8u138-fill" data-item-order="999944284" transform="translate(15.52862548828125, 105.671875)"><g id="1.cu_sy_1hiu86k1t8u138-fill" stroke="none" fill="#edf4ff"><g><path d="M 127.336977 20.2322C 126.543977 29.7108 98.397177 34.4164 69.909777 39.6509C 48.711877 43.546 29.357977 45.288 21.745577 47.0136C 15.502477 48.4288 9.471377 52.8286 10.036877 61.629C 10.381077 66.9868 13.703477 71.4046 21.745577 72.035C 31.437377 72.7948 48.104077 69.9303 75.229277 65.242C 123.998977 56.8124 140.902977 48.3751 140.902977 31.5084C 140.902977 20.2322 125.553977 12.281 118.676977 10C 122.844977 11.6633 127.810977 14.562 127.336977 20.2322Z"></path></g></g></g><g id="g-root-1.cu_1_sy_1hiu86k1t8u139-fill" data-item-order="999944286" transform="translate(15.5655517578125, 87)"><g id="1.cu_1_sy_1hiu86k1t8u139-fill" stroke="none" fill="#edf4ff"><g><path d="M 21.6823 10.137885C 31.374 9.378085 48.067 11.794885 75.1922 16.483285C 90.003 19.043285 106.1882 22.819685 120.011 29.210385C 122.998 30.636385 127.472 33.292385 127.345 38.414185C 127.196 44.388685 117.319 48.153085 104.6598 51.344585C 104.3346 51.230585 102.9633 50.683785 102.6561 50.570685C 78.8756 41.626185 51.5585 39.244885 26.2368 35.204085C 24.7636 35.763885 21.9403 35.966885 20.221 35.763885C 15.9301 34.666285 10 31.373185 10 22.448585C 10 17.819185 13.6401 10.768285 21.6823 10.137885Z"></path></g></g></g><g id="g-root-1.Ellipse_sy_18ntp0s1t8tyq6-fill" data-item-order="999944288" transform="translate(15.5289306640625, 87.178955078125)"><g id="1.Ellipse_sy_18ntp0s1t8tyq6-fill" stroke="none" fill="#edf4ff"><g><path d="M 10 22.846066C 9.998156 29.94019 15.498816 35.692136 22.284863 35.692136C 29.070909 35.692136 34.57157 29.94019 34.569726 22.846066C 34.57157 15.751942 29.070909 9.999996 22.284863 9.999996C 15.498816 9.999996 9.998156 15.751942 10 22.846066"></path></g></g></g><g id="g-root-tx_devinerl_8vwjqk1t8vev7-fill" data-item-order="1000000000" transform="translate(231.52859497070312, 231)"><g id="tx_devinerl_8vwjqk1t8vev7-fill" stroke="none" fill="#484848"><g><text style="font: 20px &quot;Roboto&quot;, sans-serif; white-space: pre;" font-size="20px" font-family="'Roboto', sans-serif"><tspan x="12" y="34" dominant-baseline="ideographic">Deviner le Pokémon</tspan></text></g></g></g><g id="g-root-fiel_1cuwn3g1t8llvs-fill" data-item-order="1000000000" transform="translate(183.52859497070312, 285)"></g><g id="g-root-tx_soumettr_dbq1v01t8ve2y-fill" data-item-order="1000000000" transform="translate(231.52859497070312, 291)"><g id="tx_soumettr_dbq1v01t8ve2y-fill" stroke="none" fill="#484848"><g><text style="font: 20px &quot;Roboto&quot;, sans-serif; white-space: pre;" font-size="20px" font-family="'Roboto', sans-serif"><tspan x="12" y="34" dominant-baseline="ideographic">Soumettre la Réponse</tspan></text></g></g></g><g id="g-root-poke_1lqjncc1t8mz9o-fill" data-item-order="1000000000" transform="translate(183.52859497070312, 225)"></g><g id="g-root-tx_choisirl_9jho1t8vfnw-fill" data-item-order="1000000000" transform="translate(231.52859497070312, 171)"><g id="tx_choisirl_9jho1t8vfnw-fill" stroke="none" fill="#484848"><g><text style="font: 20px &quot;Roboto&quot;, sans-serif; white-space: pre;" font-size="20px" font-family="'Roboto', sans-serif"><tspan x="12" y="34" dominant-baseline="ideographic">Choisir le Mode de Jeu</tspan></text></g></g></g><g id="g-root-tx_squenced_1lqjk6k1t8vdvy-fill" data-item-order="1000000000" transform="translate(123.528564453125, 39)"><g id="tx_squenced_1lqjk6k1t8vdvy-fill" stroke="none" fill="#484848"><g><text style="font: 20px &quot;Shantell Sans&quot;, cursive; white-space: pre;" font-size="20px" font-family="'Shantell Sans', cursive"><tspan x="12.39" y="35" dominant-baseline="ideographic">Séquence de Jeu de Devine le Pokémon</tspan></text></g></g></g><g id="g-root-tx_recevoir_qwjoj01t8u13d-fill" data-item-order="1000000000" transform="translate(231.52859497070312, 351)"><g id="tx_recevoir_qwjoj01t8u13d-fill" stroke="none" fill="#484848"><g><text style="font: 20px &quot;Roboto&quot;, sans-serif; white-space: pre;" font-size="20px" font-family="'Roboto', sans-serif"><tspan x="12" y="34" dominant-baseline="ideographic">Recevoir un Retour Sonore</tspan></text></g></g></g><g id="g-root-cont_1cuwn3g1t8of0l-fill" data-item-order="1000000000" transform="translate(183.52859497070312, 165)"></g><g id="g-root-tx_slection_1um6kfg1t8vd39-fill" data-item-order="1000000000" transform="translate(231.52859497070312, 111)"><g id="tx_slection_1um6kfg1t8vd39-fill" stroke="none" fill="#484848"><g><text style="font: 20px &quot;Roboto&quot;, sans-serif; white-space: pre;" font-size="20px" font-family="'Roboto', sans-serif"><tspan x="12" y="34" dominant-baseline="ideographic">Sélectionner le Nom et la Génération</tspan></text></g></g></g><g id="g-root-100_906p81t92f4b-fill" data-item-order="1000000000" transform="translate(183.52859497070312, 405)"></g><g id="g-root-tx_gagnerde_zs6orw1t8u0ao-fill" data-item-order="1000000000" transform="translate(231.52859497070312, 411)"><g id="tx_gagnerde_zs6orw1t8u0ao-fill" stroke="none" fill="#484848"><g><text style="font: 20px &quot;Roboto&quot;, sans-serif; white-space: pre;" font-size="20px" font-family="'Roboto', sans-serif"><tspan x="12" y="34" dominant-baseline="ideographic">Gagner des Points</tspan></text></g></g></g><g id="g-root-tx_terminer_18ntp0s1t8tyq7-fill" data-item-order="1000000000" transform="translate(231.528564453125, 471)"><g id="tx_terminer_18ntp0s1t8tyq7-fill" stroke="none" fill="#484848"><g><text style="font: 20px &quot;Roboto&quot;, sans-serif; white-space: pre;" font-size="20px" font-family="'Roboto', sans-serif"><tspan x="12" y="34" dominant-baseline="ideographic">Afficher le rang</tspan></text></g></g></g><g id="g-root-circ_74ulo1t8pte3-fill" data-item-order="1000000000" transform="translate(183.52859497070312, 105)"></g><g id="g-root-door_4g31m41t911xn-fill" data-item-order="1000000000" transform="translate(183.52859497070312, 465)"></g><g id="g-root-1_dkgp2k1t93shu-fill" data-item-order="1000000000" transform="translate(183.52859497070312, 345)"></g><g id="g-root-7.cu_sy_hznq3w1t8tzpk-stroke" data-item-order="999944248" transform="translate(15.52862548828125, 447.8193359375)"><g id="7.cu_sy_hznq3w1t8tzpk-stroke" fill="none" stroke-linecap="round" stroke-linejoin="round" stroke-miterlimit="4" stroke="#969696" stroke-width="2"><g><path d="M 69.909777 39.6509C 98.397177 34.4164 126.544077 29.7108 127.336877 20.2322C 127.811177 14.562 122.845377 11.6633 118.677377 10C 125.553977 12.281 140.902677 20.2322 140.902677 31.5084C 140.902677 48.3752 123.999377 56.8124 75.229277 65.242C 48.104077 69.9303 31.437377 72.7948 21.745577 72.035C 13.703477 71.4046 10.381077 66.9868 10.036877 61.629C 9.471377 52.8286 15.502477 48.4288 21.745577 47.0136C 29.357977 45.288 48.711877 43.546 69.909777 39.6509Z"></path></g></g></g><g id="g-root-7.cu_1_sy_hznq3w1t8tzpl-stroke" data-item-order="999944250" transform="translate(18.224365234375, 441.54638671875)"><g id="7.cu_1_sy_hznq3w1t8tzpl-stroke" fill="none" stroke-linecap="round" stroke-linejoin="round" stroke-miterlimit="4" stroke="#969696" stroke-width="2"><g><path d="M 38.0076 27.1771C 16.9757 24.0392 10.9029 18.5537 10 17.5313C 11.8743 19.5171 14.7922 20.8771 19.0033 21.2053C 28.7014 21.9611 45.379 19.1113 72.522 14.4469C 81.0593 12.9798 88.6207 11.5124 95.2864 10C 102.5445 12.184 110.3408 13.5695 117.3519 16.811C 120.3393 18.2371 124.8131 20.893 124.6859 26.0148C 124.5376 31.9893 114.6599 35.7537 102.0009 38.9452C 101.6757 38.8312 100.3044 38.2844 99.9973 38.1713C 92.3051 35.2781 65.1564 31.2276 38.0076 27.1771ZM 117.3519 16.811L 117.5995 16.9255"></path></g></g></g><g id="g-root-6.cu_sy_dju7zg1t8u0hu-stroke" data-item-order="999944254" transform="translate(15.52862548828125, 390.79443359375)"><g id="6.cu_sy_dju7zg1t8u0hu-stroke" fill="none" stroke-linecap="round" stroke-linejoin="round" stroke-miterlimit="4" stroke="#ba5de5" stroke-width="2"><g><path d="M 69.909777 39.6509C 98.397177 34.4164 126.544077 29.7108 127.336877 20.2322C 127.811177 14.562 122.845377 11.6633 118.677377 10C 125.553977 12.281 140.902677 20.2322 140.902677 31.5084C 140.902677 48.3752 123.999377 56.8124 75.229277 65.242C 48.104077 69.9303 31.437377 72.7948 21.745577 72.035C 13.703477 71.4046 10.381077 66.9868 10.036877 61.629C 9.471377 52.8286 15.502477 48.4288 21.745577 47.0136C 29.357977 45.288 48.711877 43.546 69.909777 39.6509Z"></path></g></g></g><g id="g-root-6.cu_1_sy_4o77qk1t8u1aj-stroke" data-item-order="999944256" transform="translate(18.224365234375, 384.52197265625)"><g id="6.cu_1_sy_4o77qk1t8u1aj-stroke" fill="none" stroke-linecap="round" stroke-linejoin="round" stroke-miterlimit="4" stroke="#ba5de5" stroke-width="2"><g><path d="M 38.0076 27.1771C 16.9757 24.0392 10.9029 18.5537 10 17.5313C 11.8743 19.5171 14.7922 20.8771 19.0033 21.2053C 28.7014 21.9611 45.379 19.1113 72.522 14.4469C 81.0593 12.9798 88.6207 11.5124 95.2864 10C 102.5445 12.184 110.3408 13.5695 117.3519 16.811C 120.3393 18.2371 124.8131 20.893 124.6859 26.0148C 124.5376 31.9893 114.6599 35.7537 102.0009 38.9452C 101.6757 38.8312 100.3044 38.2844 99.9973 38.1713C 92.3051 35.2781 65.1564 31.2276 38.0076 27.1771ZM 117.3519 16.811L 117.5995 16.9255"></path></g></g></g><g id="g-root-5.cu_sy_4o77qk1t8u1ak-stroke" data-item-order="999944260" transform="translate(15.52862548828125, 333.77001953125)"><g id="5.cu_sy_4o77qk1t8u1ak-stroke" fill="none" stroke-linecap="round" stroke-linejoin="round" stroke-miterlimit="4" stroke="#e55753" stroke-width="2"><g><path d="M 69.909777 39.6509C 98.397177 34.4164 126.544077 29.7108 127.336877 20.2322C 127.811177 14.562 122.845377 11.6633 118.677377 10C 125.553977 12.281 140.902677 20.2322 140.902677 31.5084C 140.902677 48.3752 123.999377 56.8124 75.229277 65.242C 48.104077 69.9303 31.437377 72.7948 21.745577 72.035C 13.703477 71.4046 10.381077 66.9868 10.036877 61.629C 9.471377 52.8286 15.502477 48.4288 21.745577 47.0136C 29.357977 45.288 48.711877 43.546 69.909777 39.6509Z"></path></g></g></g><g id="g-root-5.cu_1_sy_906p81t8tyx1-stroke" data-item-order="999944262" transform="translate(18.224365234375, 327.4970703125)"><g id="5.cu_1_sy_906p81t8tyx1-stroke" fill="none" stroke-linecap="round" stroke-linejoin="round" stroke-miterlimit="4" stroke="#e55753" stroke-width="2"><g><path d="M 38.0076 27.1771C 16.9757 24.0392 10.9029 18.5537 10 17.5313C 11.8743 19.5171 14.7922 20.8771 19.0033 21.2053C 28.7014 21.9611 45.379 19.1113 72.522 14.4469C 81.0593 12.9798 88.6207 11.5124 95.2864 10C 102.5445 12.184 110.3408 13.5695 117.3519 16.811C 120.3393 18.2371 124.8131 20.893 124.6859 26.0148C 124.5376 31.9893 114.6599 35.7537 102.0009 38.9452C 101.6757 38.8312 100.3044 38.2844 99.9973 38.1713C 92.3051 35.2781 65.1564 31.2276 38.0076 27.1771ZM 117.3519 16.811L 117.5995 16.9255"></path></g></g></g><g id="g-root-4.cu_sy_906p81t8tyx2-stroke" data-item-order="999944266" transform="translate(15.52862548828125, 276.74609375)"><g id="4.cu_sy_906p81t8tyx2-stroke" fill="none" stroke-linecap="round" stroke-linejoin="round" stroke-miterlimit="4" stroke="#de8431" stroke-width="2"><g><path d="M 69.909777 39.6509C 98.397177 34.4164 126.544077 29.7108 127.336877 20.2322C 127.811177 14.562 122.845377 11.6633 118.677377 10C 125.553977 12.281 140.902677 20.2322 140.902677 31.5084C 140.902677 48.3752 123.999377 56.8124 75.229277 65.242C 48.104077 69.9303 31.437377 72.7948 21.745577 72.035C 13.703477 71.4046 10.381077 66.9868 10.036877 61.629C 9.471377 52.8286 15.502477 48.4288 21.745577 47.0136C 29.357977 45.288 48.711877 43.546 69.909777 39.6509Z"></path></g></g></g><g id="g-root-4.cu_1_sy_1qeh8fg1t8tzin-stroke" data-item-order="999944268" transform="translate(18.224365234375, 270.4736328125)"><g id="4.cu_1_sy_1qeh8fg1t8tzin-stroke" fill="none" stroke-linecap="round" stroke-linejoin="round" stroke-miterlimit="4" stroke="#de8431" stroke-width="2"><g><path d="M 38.0076 27.1771C 16.9757 24.0392 10.9029 18.5537 10 17.5313C 11.8743 19.5171 14.7922 20.8771 19.0033 21.2053C 28.7014 21.9611 45.379 19.1113 72.522 14.4469C 81.0593 12.9798 88.6207 11.5124 95.2864 10C 102.5445 12.184 110.3408 13.5695 117.3519 16.811C 120.3393 18.2371 124.8131 20.893 124.6859 26.0148C 124.5376 31.9893 114.6599 35.7537 102.0009 38.9452C 101.6757 38.8312 100.3044 38.2844 99.9973 38.1713C 92.3051 35.2781 65.1564 31.2276 38.0076 27.1771ZM 117.3519 16.811L 117.5995 16.9255"></path></g></g></g><g id="g-root-3.cu_sy_1uuaqjw1t8tzi8-stroke" data-item-order="999944272" transform="translate(15.52862548828125, 219.720703125)"><g id="3.cu_sy_1uuaqjw1t8tzi8-stroke" fill="none" stroke-linecap="round" stroke-linejoin="round" stroke-miterlimit="4" stroke="#e0cb15" stroke-width="2"><g><path d="M 69.909777 39.6509C 98.397177 34.4164 126.544077 29.7108 127.336877 20.2322C 127.811177 14.562 122.845377 11.6633 118.677377 10C 125.553977 12.281 140.902677 20.2322 140.902677 31.5084C 140.902677 48.3752 123.999377 56.8124 75.229277 65.242C 48.104077 69.9303 31.437377 72.7948 21.745577 72.035C 13.703477 71.4046 10.381077 66.9868 10.036877 61.629C 9.471377 52.8286 15.502477 48.4288 21.745577 47.0136C 29.357977 45.288 48.711877 43.546 69.909777 39.6509Z"></path></g></g></g><g id="g-root-3.cu_1_sy_1lynqb01t8u0ax-stroke" data-item-order="999944274" transform="translate(18.224365234375, 213.4482421875)"><g id="3.cu_1_sy_1lynqb01t8u0ax-stroke" fill="none" stroke-linecap="round" stroke-linejoin="round" stroke-miterlimit="4" stroke="#e0cb15" stroke-width="2"><g><path d="M 38.0076 27.1771C 16.9757 24.0392 10.9029 18.5537 10 17.5313C 11.8743 19.5171 14.7922 20.8771 19.0033 21.2053C 28.7014 21.9611 45.379 19.1113 72.522 14.4469C 81.0593 12.9798 88.6207 11.5124 95.2864 10C 102.5445 12.184 110.3408 13.5695 117.3519 16.811C 120.3393 18.2371 124.8131 20.893 124.6859 26.0148C 124.5376 31.9893 114.6599 35.7537 102.0009 38.9452C 101.6757 38.8312 100.3044 38.2844 99.9973 38.1713C 92.3051 35.2781 65.1564 31.2276 38.0076 27.1771ZM 117.3519 16.811L 117.5995 16.9255"></path></g></g></g><g id="g-root-2.cu_sy_1lynqb01t8u0ay-stroke" data-item-order="999944278" transform="translate(15.52862548828125, 162.6962890625)"><g id="2.cu_sy_1lynqb01t8u0ay-stroke" fill="none" stroke-linecap="round" stroke-linejoin="round" stroke-miterlimit="4" stroke="#3cc583" stroke-width="2"><g><path d="M 69.909777 39.6509C 98.397177 34.4164 126.544077 29.7108 127.336877 20.2322C 127.811177 14.562 122.845377 11.6633 118.677377 10C 125.553977 12.281 140.902677 20.2322 140.902677 31.5084C 140.902677 48.3752 123.999377 56.8124 75.229277 65.242C 48.104077 69.9303 31.437377 72.7948 21.745577 72.035C 13.703477 71.4046 10.381077 66.9868 10.036877 61.629C 9.471377 52.8286 15.502477 48.4288 21.745577 47.0136C 29.357977 45.288 48.711877 43.546 69.909777 39.6509Z"></path></g></g></g><g id="g-root-2.cu_1_sy_1lynqb01t8u0az-stroke" data-item-order="999944280" transform="translate(18.224365234375, 156.4228515625)"><g id="2.cu_1_sy_1lynqb01t8u0az-stroke" fill="none" stroke-linecap="round" stroke-linejoin="round" stroke-miterlimit="4" stroke="#3cc583" stroke-width="2"><g><path d="M 38.0076 27.1771C 16.9757 24.0392 10.9029 18.5537 10 17.5313C 11.8743 19.5171 14.7922 20.8771 19.0033 21.2053C 28.7014 21.9611 45.379 19.1113 72.522 14.4469C 81.0593 12.9798 88.6207 11.5124 95.2864 10C 102.5445 12.184 110.3408 13.5695 117.3519 16.811C 120.3393 18.2371 124.8131 20.893 124.6859 26.0148C 124.5376 31.9893 114.6599 35.7537 102.0009 38.9452C 101.6757 38.8312 100.3044 38.2844 99.9973 38.1713C 92.3051 35.2781 65.1564 31.2276 38.0076 27.1771ZM 117.3519 16.811L 117.5995 16.9255"></path></g></g></g><g id="g-root-1.cu_sy_1hiu86k1t8u138-stroke" data-item-order="999944284" transform="translate(15.52862548828125, 105.671875)"><g id="1.cu_sy_1hiu86k1t8u138-stroke" fill="none" stroke-linecap="round" stroke-linejoin="round" stroke-miterlimit="4" stroke="#4e88e7" stroke-width="2"><g><path d="M 69.909777 39.6509C 98.397177 34.4164 126.544077 29.7108 127.336877 20.2322C 127.811177 14.562 122.845377 11.6633 118.677377 10C 125.553977 12.281 140.902677 20.2322 140.902677 31.5084C 140.902677 48.3752 123.999377 56.8124 75.229277 65.242C 48.104077 69.9303 31.437377 72.7948 21.745577 72.035C 13.703477 71.4046 10.381077 66.9868 10.036877 61.629C 9.471377 52.8286 15.502477 48.4288 21.745577 47.0136C 29.357977 45.288 48.711877 43.546 69.909777 39.6509Z"></path></g></g></g><g id="g-root-1.cu_1_sy_1hiu86k1t8u139-stroke" data-item-order="999944286" transform="translate(15.5655517578125, 87)"><g id="1.cu_1_sy_1hiu86k1t8u139-stroke" fill="none" stroke-linecap="round" stroke-linejoin="round" stroke-miterlimit="4" stroke="#4e88e7" stroke-width="2"><g><path d="M 120.0108 29.210385C 122.9982 30.636385 127.4718 33.292385 127.3446 38.414185C 127.1963 44.388685 117.3187 48.153085 104.6598 51.344585C 104.3346 51.230585 102.9633 50.683785 102.6561 50.570685C 78.8756 41.626185 51.5585 39.244885 26.2368 35.204085C 24.7636 35.763885 21.9403 35.966885 20.221 35.763885C 15.9301 34.666285 10 31.373185 10 22.448585C 10 17.819185 13.6401 10.768285 21.6823 10.137885C 31.374 9.378085 48.067 11.794885 75.1922 16.483285C 90.003 19.043185 106.1882 22.819685 120.0108 29.210385ZM 120.0108 29.210385L 120.2583 29.324785"></path></g></g></g><g id="g-root-1.Ellipse_sy_18ntp0s1t8tyq6-stroke" data-item-order="999944288" transform="translate(15.5289306640625, 87.178955078125)"><g id="1.Ellipse_sy_18ntp0s1t8tyq6-stroke" fill="none" stroke-linecap="round" stroke-linejoin="round" stroke-miterlimit="4" stroke="#4e88e7" stroke-width="2"><g><path d="M 10 22.846066C 9.998156 29.94019 15.498816 35.692136 22.284863 35.692136C 29.070909 35.692136 34.57157 29.94019 34.569726 22.846066C 34.57157 15.751942 29.070909 9.999996 22.284863 9.999996C 15.498816 9.999996 9.998156 15.751942 10 22.846066"></path></g></g></g><g id="g-root-tx_devinerl_8vwjqk1t8vev7-stroke" data-item-order="1000000000" transform="translate(231.52859497070312, 231)"></g><g id="g-root-fiel_1cuwn3g1t8llvs-stroke" data-item-order="1000000000" transform="translate(183.52859497070312, 285)"><g id="fiel_1cuwn3g1t8llvs-stroke" fill="none" stroke-linecap="round" stroke-linejoin="round" stroke-miterlimit="4" stroke="#de8431" stroke-width="2"><g><path d="M 13.857142 17.714285L 42.142857 17.714285C 42.142857 17.714285 44.714287 17.714285 44.714287 20.285713L 44.714287 35.714287C 44.714287 35.714287 44.714287 38.285713 42.142857 38.285713L 13.857142 38.285713C 13.857142 38.285713 11.285714 38.285713 11.285714 35.714287L 11.285714 20.285713C 11.285714 20.285713 11.285714 17.714285 13.857142 17.714285M 34.42857 31.857143L 29.285713 31.857143M 17.714285 24.142857L 20.285713 24.142857L 20.285713 31.857143M 17.714285 31.857143L 22.857143 31.857143"></path></g></g></g><g id="g-root-tx_soumettr_dbq1v01t8ve2y-stroke" data-item-order="1000000000" transform="translate(231.52859497070312, 291)"></g><g id="g-root-poke_1lqjncc1t8mz9o-stroke" data-item-order="1000000000" transform="translate(183.52859497070312, 225)"><g id="poke_1lqjncc1t8mz9o-stroke" fill="none" stroke-linecap="round" stroke-linejoin="round" stroke-miterlimit="4" stroke="#e0cb15" stroke-width="2"><g><path d="M 10.75 28C 10.75 37.526913 18.473087 45.25 28 45.25C 37.526913 45.25 45.25 37.526913 45.25 28C 45.25 18.473087 37.526913 10.75 28 10.75C 18.473087 10.75 10.75 18.473087 10.75 28M 10.75 28L 20.5 28M 35.5 28L 45.25 28M 20.5 28C 20.5 32.142136 23.857864 35.5 28 35.5C 32.142136 35.5 35.5 32.142136 35.5 28C 35.5 23.857864 32.142136 20.5 28 20.5C 23.857864 20.5 20.5 23.857864 20.5 28M 25 28C 25 29.656855 26.343145 31 28 31C 29.656855 31 31 29.656855 31 28C 31 26.343145 29.656855 25 28 25C 26.343145 25 25 26.343145 25 28"></path></g></g></g><g id="g-root-tx_choisirl_9jho1t8vfnw-stroke" data-item-order="1000000000" transform="translate(231.52859497070312, 171)"></g><g id="g-root-tx_squenced_1lqjk6k1t8vdvy-stroke" data-item-order="1000000000" transform="translate(123.528564453125, 39)"></g><g id="g-root-tx_recevoir_qwjoj01t8u13d-stroke" data-item-order="1000000000" transform="translate(231.52859497070312, 351)"></g><g id="g-root-cont_1cuwn3g1t8of0l-stroke" data-item-order="1000000000" transform="translate(183.52859497070312, 165)"><g id="cont_1cuwn3g1t8of0l-stroke" fill="none" stroke-linecap="round" stroke-linejoin="round" stroke-miterlimit="4" stroke="#3cc583" stroke-width="2"><g><path d="M 25 35.125L 26.5 35.125M 29.5 35.125L 31 35.125M 28.75 24.625L 27.25 24.625C 26.421572 24.625 25.75 25.296572 25.75 26.125L 25.75 27.625L 30.25 27.625L 30.25 26.125C 30.25 25.296572 29.578428 24.625 28.75 24.625ZM 28 24.625L 28 20.125C 28 17.639719 25.985283 15.625 23.5 15.625L 19 15.625M 18.25 29.875L 18.25 35.875M 21.25 32.875L 15.25 32.875M 37.75 29.5C 37.957108 29.5 38.125 29.667892 38.125 29.875M 37.375 29.875C 37.375 29.667892 37.542892 29.5 37.75 29.5M 37.75 30.25C 37.542892 30.25 37.375 30.082108 37.375 29.875M 38.125 29.875C 38.125 30.082108 37.957108 30.25 37.75 30.25M 34.75 32.5C 34.957108 32.5 35.125 32.667892 35.125 32.875M 34.375 32.875C 34.375 32.667892 34.542892 32.5 34.75 32.5M 34.75 33.25C 34.542892 33.25 34.375 33.082108 34.375 32.875M 35.125 32.875C 35.125 33.082108 34.957108 33.25 34.75 33.25M 37.75 35.5C 37.957108 35.5 38.125 35.667892 38.125 35.875M 37.375 35.875C 37.375 35.667892 37.542892 35.5 37.75 35.5M 37.75 36.25C 37.542892 36.25 37.375 36.082108 37.375 35.875M 38.125 35.875C 38.125 36.082108 37.957108 36.25 37.75 36.25M 40.75 32.5C 40.957108 32.5 41.125 32.667892 41.125 32.875M 40.375 32.875C 40.375 32.667892 40.542892 32.5 40.75 32.5M 40.75 33.25C 40.542892 33.25 40.375 33.082108 40.375 32.875M 41.125 32.875C 41.125 33.082108 40.957108 33.25 40.75 33.25M 45.25 32.875C 45.251465 29.925177 43.523651 27.24843 40.834919 26.035103C 38.146183 24.821775 34.995903 25.297218 32.785 27.25C 32.511543 27.491167 32.159607 27.624475 31.795 27.625L 24.205 27.625C 23.840391 27.624475 23.488457 27.491167 23.215 27.25C 20.199776 24.590822 15.62409 24.782087 12.841306 27.683624C 10.05852 30.585159 10.05852 35.164841 12.841306 38.066376C 15.62409 40.967911 20.199776 41.15918 23.215 38.5C 23.488457 38.258835 23.840391 38.125523 24.205 38.125L 31.795 38.125C 32.159607 38.125523 32.511543 38.258835 32.785 38.5C 34.995903 40.452782 38.146183 40.928223 40.834919 39.714897C 43.523651 38.501572 45.251465 35.824821 45.25 32.875Z"></path></g></g></g><g id="g-root-tx_slection_1um6kfg1t8vd39-stroke" data-item-order="1000000000" transform="translate(231.52859497070312, 111)"></g><g id="g-root-100_906p81t92f4b-stroke" data-item-order="1000000000" transform="translate(183.52859497070312, 405)"><g id="100_906p81t92f4b-stroke" fill="none" stroke-linecap="round" stroke-linejoin="round" stroke-miterlimit="4" stroke="#ba5de5" stroke-width="2"><g><path d="M 21.25 28.948L 21.25 22.198C 21.25 21.913921 21.089499 21.654224 20.835409 21.52718C 20.581322 21.400135 20.277264 21.427551 20.049999 21.598L 18.25 22.948M 19.75 28.948L 22.75 28.948M 30.25 26.698C 30.25 27.940641 29.242641 28.948 28 28.948C 26.75736 28.948 25.75 27.940641 25.75 26.698L 25.75 23.698C 25.75 22.45536 26.75736 21.448 28 21.448C 29.242641 21.448 30.25 22.45536 30.25 23.698ZM 37.75 26.698C 37.75 27.940641 36.742641 28.948 35.5 28.948C 34.257362 28.948 33.25 27.940641 33.25 26.698L 33.25 23.698C 33.25 22.45536 34.257362 21.448 35.5 21.448C 36.742641 21.448 37.75 22.45536 37.75 23.698ZM 16.222 31.051001L 10.84 40.2715C 10.633 40.628502 10.798 40.863998 11.2045 40.795002L 16.241499 39.941502L 17.987499 44.741501C 18.1285 45.128502 18.4165 45.156998 18.628 44.801498L 23.2255 37.079498M 39.778 31.051001L 45.16 40.2715C 45.366997 40.628502 45.202 40.863998 44.795502 40.795002L 39.758499 39.941502L 38.012497 44.741501C 37.871498 45.128502 37.5835 45.156998 37.371998 44.801498L 32.774498 37.079498M 14.5 24.448C 14.5 31.903845 20.544157 37.947998 28 37.947998C 35.455841 37.947998 41.5 31.903845 41.5 24.448C 41.5 16.992157 35.455841 10.948 28 10.948C 20.544157 10.948 14.5 16.992157 14.5 24.448Z"></path></g></g></g><g id="g-root-tx_gagnerde_zs6orw1t8u0ao-stroke" data-item-order="1000000000" transform="translate(231.52859497070312, 411)"></g><g id="g-root-tx_terminer_18ntp0s1t8tyq7-stroke" data-item-order="1000000000" transform="translate(231.528564453125, 471)"></g><g id="g-root-circ_74ulo1t8pte3-stroke" data-item-order="1000000000" transform="translate(183.52859497070312, 105)"><g id="circ_74ulo1t8pte3-stroke" fill="none" stroke-linecap="round" stroke-linejoin="round" stroke-miterlimit="4" stroke="#4e88e7" stroke-width="2"><g><path d="M 21.571428 24.142857C 21.571428 27.69326 24.449598 30.571428 28 30.571428C 31.550402 30.571428 34.42857 27.69326 34.42857 24.142857C 34.42857 20.592455 31.550402 17.714285 28 17.714285C 24.449598 17.714285 21.571428 20.592455 21.571428 24.142857M 17.02 40.599998C 19.353584 36.769547 23.51469 34.432079 28 34.432079C 32.48531 34.432079 36.646416 36.769547 38.98 40.600002M 11.285714 28C 11.285715 37.231045 18.768955 44.714287 28.000002 44.714287C 37.231045 44.714287 44.714287 37.231045 44.714287 28.000002C 44.714287 18.768955 37.231045 11.285715 28.000002 11.285715C 18.768955 11.285715 11.285715 18.768955 11.285715 28.000002"></path></g></g></g><g id="g-root-door_4g31m41t911xn-stroke" data-item-order="1000000000" transform="translate(183.52859497070312, 465)"><g id="door_4g31m41t911xn-stroke" fill="none" stroke-linecap="round" stroke-linejoin="round" stroke-miterlimit="4" stroke="#969696" stroke-width="2"><g><path d="M 33.736 15.2065L 26.611 24.206499L 22.861 20.456501M 14.6695 30.629501C 12.313389 29.758478 10.749266 27.511959 10.75 25L 10.75 21.25C 10.75 20.421574 11.421573 19.75 12.25 19.75L 15.3265 19.75M 41.330498 30.629501C 43.686611 29.758478 45.250736 27.511959 45.25 25L 45.25 21.25C 45.25 20.421574 44.578426 19.75 43.75 19.75L 40.6735 19.75M 41.473 12.2875C 41.483112 11.883219 41.329548 11.491982 41.047142 11.202514C 40.764732 10.913046 40.377411 10.749873 39.973 10.75L 16.027 10.75C 15.622592 10.749873 15.235266 10.913046 14.952858 11.202514C 14.67045 11.491982 14.51689 11.883219 14.526999 12.2875C 15.0475 33.608501 26.456499 27.517 26.456499 35.5C 26.374001 40.123001 24.456999 41.837502 21.172001 42.182499C 20.369165 42.266212 19.759254 42.942814 19.759001 43.75C 19.759001 44.578426 20.430573 45.25 21.259001 45.25L 34.740997 45.25C 35.569427 45.25 36.240997 44.578426 36.240997 43.75C 36.240746 42.942814 35.630836 42.266212 34.827999 42.182499C 31.543001 41.837502 29.625999 40.123001 29.543501 35.5C 29.543501 27.517 40.952499 33.608501 41.473 12.2875Z"></path></g></g></g><g id="g-root-1_dkgp2k1t93shu-stroke" data-item-order="1000000000" transform="translate(183.52859497070312, 345)"><g id="1_dkgp2k1t93shu-stroke" fill="none" stroke-linecap="round" stroke-linejoin="round" stroke-miterlimit="4" stroke="#e55753" stroke-width="2"><g><path d="M 10.75 28.75L 14.0365 28.75C 14.320333 28.75001 14.579843 28.910244 14.707 29.164L 15.364 30.478001C 15.488564 30.726585 15.740429 30.885859 16.018412 30.891832C 16.296394 30.897808 16.554871 30.749504 16.690001 30.5065L 19.0585 26.2435C 19.19338 25.999699 19.452299 25.850763 19.73086 25.856745C 20.00942 25.862726 20.261707 26.022636 20.386 26.271999L 22.974998 31.450001C 23.089245 31.679043 23.312412 31.834009 23.566935 31.86104C 23.821459 31.888073 24.072193 31.783438 24.232 31.5835L 26.2735 29.033501C 26.415913 28.855162 26.631777 28.751369 26.860001 28.751501L 29.5 28.751501M 21.316 38.546501C 21.64954 42.439133 24.970118 45.390594 28.875004 45.265236C 32.779888 45.139877 35.904324 41.981514 35.987503 38.0755C 36.078369 35.661575 37.408905 33.465572 39.5065 32.267498C 43.805725 29.765446 46.021763 24.793224 45.008106 19.923304C 43.994446 15.053385 39.9785 11.37833 35.037998 10.7995C 30.571341 10.395759 26.295208 12.698246 24.1735 16.6495M 27.505001 20.332001C 29.593307 19.402418 32.010193 19.592892 33.927101 20.838127C 35.844009 22.083361 37.000462 24.214142 37 26.5C 37.05442 29.477768 35.068443 32.10778 32.189499 32.870499C 31.155645 33.141495 30.386337 34.007854 30.2395 35.066502C 30.115604 36.356438 29.167702 37.416142 27.899502 37.682499C 27.015331 37.878601 26.089891 37.664783 25.381359 37.100697C 24.672827 36.53661 24.257042 35.682629 24.25 34.777M 27.982 24.9025C 27.500031 24.030039 27.248117 23.049234 27.25 22.0525C 27.256121 19.062767 29.462379 16.53373 32.42363 16.121964C 35.384876 15.710197 38.197426 17.541359 39.019001 20.416"></path></g></g></g></g></g></svg>